<svg width="1010" height="466" viewBox="0 0 1010 466" fill="none" xmlns="http://www.w3.org/2000/svg">
<path d="M1010 0H109.051V466H1010V0Z" fill="black"/>
<path d="M1010 0H109.051V466H1010V0Z" fill="white"/>
<path d="M109.051 0H1010V466H109.051V0Z" fill="#010101"/>
<path d="M327.154 323.429C327.154 360.747 295.441 391 256.322 391C217.202 391 185.489 360.747 185.489 323.429C185.489 286.11 185.489 191.504 256.322 255.858C295.441 255.858 327.154 286.11 327.154 323.429Z" fill="#340000"/>
<path d="M362.825 364C412.358 364 452.513 334.675 452.513 298.5C452.513 262.325 412.358 233 362.825 233C313.293 233 273.138 262.325 273.138 298.5C273.138 334.675 313.293 364 362.825 364Z" fill="#FF3E01"/>
<path d="M608.446 210.5C608.446 256.892 543.831 189 494.299 189C404.611 220.5 404.612 151.392 404.612 105C404.612 58.6081 444.766 21 494.299 21C543.831 21 608.446 164.108 608.446 210.5Z" fill="#020202"/>
<path d="M152.876 331.5C152.876 377.892 202.409 453.5 152.876 453.5C63.1886 485 322.568 403 184.98 403C184.98 356.608 146.761 405 152.876 285.5C202.409 285.5 152.876 285.108 152.876 331.5Z" fill="#FDC500"/>
<path d="M354.672 140.5C354.672 172.809 326.381 199 291.483 199C256.585 199 228.295 172.809 228.295 140.5C228.295 108.191 270.344 114 305.242 114C340.14 114 394.929 36.0003 354.672 140.5Z" fill="black"/>
<path d="M195.171 214C195.171 246.309 166.88 272.5 131.982 272.5C97.084 272.5 116.694 246.309 116.694 214C116.694 181.692 110.843 187.5 145.741 187.5C180.639 187.5 235.428 109.5 195.171 214Z" fill="#4AE700"/>
<path d="M158.481 186C185.781 186 207.911 165.629 207.911 140.5C207.911 115.371 185.781 95 158.481 95C131.182 95 109.051 115.371 109.051 140.5C109.051 165.629 131.182 186 158.481 186Z" fill="#090909"/>
<path d="M158.481 433C185.781 433 207.911 412.629 207.911 387.5C207.911 362.371 185.781 342 158.481 342C131.182 342 109.051 362.371 109.051 387.5C109.051 412.629 131.182 433 158.481 433Z" fill="#180000"/>
</svg>
