<svg width="884" height="466" viewBox="0 0 884 466" fill="none" xmlns="http://www.w3.org/2000/svg">
<g clip-path="url(#clip0_131_96)">
<mask id="mask0_131_96" style="mask-type:luminance" maskUnits="userSpaceOnUse" x="0" y="0" width="884" height="466">
<path d="M884 0H0V466H884V0Z" fill="white"/>
</mask>
<g mask="url(#mask0_131_96)">
<path d="M-0.000488281 0H884V466H-0.000488281V0Z" fill="#010101"/>
<path d="M214 323.429C214 360.747 182.883 391 144.5 391C106.116 391 74.9995 360.747 74.9995 323.429C74.9995 286.11 74.9995 191.504 144.5 255.858C182.883 255.858 214 286.11 214 323.429Z" fill="#340000"/>
<path d="M249 364C297.601 364 337 334.675 337 298.5C337 262.325 297.601 233 249 233C200.399 233 161 262.325 161 298.5C161 334.675 200.399 364 249 364Z" fill="#FF3E01"/>
<path d="M76 106.5C76 150.683 36.601 186.5 -12 186.5C-60.602 186.5 -100 150.683 -100 106.5C-100 62.317 -77.602 39 -29 39C-74 -58.5 76 62.317 76 106.5Z" fill="#FF0000"/>
<path d="M69 369.541C69 413.724 29.601 449.541 -19 449.541C-67.602 449.541 -107 413.724 -107 369.541C-107 325.358 -84.602 302.041 -36 302.041C-81 204.541 69 325.358 69 369.541Z" fill="#BD00FF"/>
<path d="M490 210.5C490 256.892 426.601 189 378 189C290 220.5 290 151.392 290 105C290 58.6081 329.399 21 378 21C426.601 21 490 164.108 490 210.5Z" fill="#FDC500"/>
<path d="M42.9999 331.5C42.9999 377.892 91.601 453.5 42.9999 453.5C-45.0001 485 209.5 403 74.4998 403C74.4998 356.608 36.9999 405 42.9999 285.5C91.601 285.5 42.9999 285.108 42.9999 331.5Z" fill="#FDC500"/>
<path d="M241 140.5C241 172.809 213.241 199 179 199C144.758 199 117 172.809 117 140.5C117 108.191 158.258 114 192.5 114C226.741 114 280.5 36.0003 241 140.5Z" fill="#4AE700"/>
<path d="M84.4994 214C84.4994 246.309 56.741 272.5 22.4994 272.5C-11.7423 272.5 7.49907 246.309 7.49907 214C7.49907 181.692 1.75777 187.5 35.9994 187.5C70.2411 187.5 123.999 109.5 84.4994 214Z" fill="#4AE700"/>
</g>
<ellipse cx="48.5" cy="140.5" rx="48.5" ry="45.5" fill="#090909"/>
<ellipse cx="48.5" cy="387.5" rx="48.5" ry="45.5" fill="#180000"/>
</g>
<defs>
<clipPath id="clip0_131_96">
<rect width="884" height="466" fill="white"/>
</clipPath>
</defs>
</svg>
