<svg width="379" height="306" viewBox="0 0 379 306" fill="none" xmlns="http://www.w3.org/2000/svg">
<g clip-path="url(#clip0_130_70)">
<rect width="379" height="306" fill="black"/>
<path d="M-0.000488281 0H884V306H-0.000488281V0Z" fill="#010101"/>
<path d="M214 212.38C214 236.885 182.883 256.751 144.5 256.751C106.116 256.751 74.9995 236.885 74.9995 212.38C74.9995 187.875 74.9995 125.752 144.5 168.01C182.883 168.01 214 187.875 214 212.38Z" fill="#FF0000"/>
<path d="M249 239.021C297.601 239.021 337 219.765 337 196.011C337 172.257 297.601 153 249 153C200.399 153 161 172.257 161 196.011C161 219.765 200.399 239.021 249 239.021Z" fill="#FF3E01"/>
<path d="M530 253.468C530 282.481 490.601 306 442 306C393.398 306 354 282.481 354 253.468C354 224.455 376.398 209.144 425 209.144C380 145.12 530 224.455 530 253.468Z" fill="#AD00FF"/>
<path d="M490 138.225C490 168.689 426.601 124.107 378 124.107C290 144.792 290 99.4119 290 68.9485C290 38.4851 329.399 13.7897 378 13.7897C426.601 13.7897 490 107.762 490 138.225Z" fill="#070600"/>
<path d="M42.9999 217.68C42.9999 248.144 91.601 297.792 42.9999 297.792C-45.0001 318.476 209.5 264.631 74.4998 264.631C74.4998 234.167 36.9999 265.944 42.9999 187.474C91.601 187.474 42.9999 187.217 42.9999 217.68Z" fill="#FDC500"/>
<path d="M84.4994 140.524C84.4994 161.739 56.741 178.938 22.4994 178.938C-11.7423 178.938 7.49906 161.739 7.49906 140.524C7.49906 119.309 1.75776 123.122 35.9994 123.122C70.2411 123.122 123.999 71.9035 84.4994 140.524Z" fill="#FF8A00"/>
<ellipse cx="50.5" cy="157.5" rx="26.5" ry="21.5" fill="#FF0000"/>
<rect y="200" width="379" height="106" fill="black"/>
<ellipse cx="27" cy="79.5" rx="25" ry="35.5" fill="#FF2E2E"/>
</g>
<defs>
<clipPath id="clip0_130_70">
<rect width="379" height="306" fill="white"/>
</clipPath>
</defs>
</svg>
